<svg xmlns="http://www.w3.org/2000/svg" version="1.1" xmlns:xlink="http://www.w3.org/1999/xlink" width="1000" height="1000"><g clip-path="url(#SvgjsClipPath1134)"><rect width="1000" height="1000" fill="#ffffff"></rect><g transform="matrix(1.953125,0,0,1.953125,0,0)"><svg xmlns="http://www.w3.org/2000/svg" version="1.1" xmlns:xlink="http://www.w3.org/1999/xlink" width="512" height="512"><svg id="Layer_2" xmlns="http://www.w3.org/2000/svg" version="1.1" viewBox="0 0 512 512">
  <!-- Generator: Adobe Illustrator 29.8.2, SVG Export Plug-In . SVG Version: 2.1.1 Build 3)  -->
  <defs>
    <style>
      .st0 {
        fill: #000255;
      }

      .st1 {
        fill: #05a6f0;
      }

      .st2 {
        fill: #b8deff;
      }
    </style>
  <clipPath id="SvgjsClipPath1134"><rect width="1000" height="1000" x="0" y="0" rx="500" ry="500"></rect></clipPath></defs>
  <circle class="st1" cx="256" cy="256" r="254.73"></circle>
  <path class="st2" d="M442.13,331.5c-8.77-22.45-22.16-50.53-42.81-80.08-17.72-25.36-36.13-45.16-52.03-60.06-5.49-14.73-11.48-30.48-17.99-47.14-22.33-57.16-31.02-77.24-50.9-85.67-5.95-2.52-11.39-3.38-15.15-3.69v-.08c-.2,0-.44.02-.65.03-.14,0-.29-.02-.42-.03,0,.02,0,.04,0,.05-4.18.23-10.08,1.03-16.47,3.72-19.54,8.23-28.29,27.81-50.9,85.67-6.51,16.66-12.5,32.41-17.99,47.14-15.89,14.9-34.31,34.7-52.03,60.06-20.65,29.55-34.04,57.63-42.81,80.08,5.91-.67,13.62-2.15,22.12-5.53,11.62-4.61,20.01-10.88,25.29-15.55-17.17,24.32-16.53,54.21-.92,71.34,12.45,13.67,30.49,14.89,35.69,15.06-11.77,5.97-23.53,11.94-35.3,17.91l1.14,23.97c9.43,5.8,22.35,12.22,38.5,16.29,36.85,9.27,68.08.62,82.41-4.43,2.43-4.18,5.76-11.1,7.16-20.25,1.67-10.94-.2-19.86-1.62-24.79,1.86-.04,3.73-.08,5.59-.12,1.86.04,3.73.08,5.59.12-1.43,4.94-3.3,13.85-1.62,24.79,1.4,9.15,4.73,16.07,7.16,20.25,14.33,5.05,45.55,13.71,82.41,4.43,16.16-4.06,29.07-10.49,38.5-16.29l1.14-23.97c-11.77-5.97-23.53-11.94-35.3-17.91,5.2-.17,23.24-1.39,35.69-15.06,15.6-17.13,16.25-47.02-.92-71.34,5.29,4.67,13.68,10.93,25.29,15.55,8.51,3.38,16.21,4.86,22.12,5.53Z"></path>
  <path class="st0" d="M428,328.63c-8.77-22.45-22.16-50.53-42.81-80.08-17.72-25.36-36.13-45.16-52.03-60.06-5.49-14.73-11.48-30.48-17.99-47.14-22.33-57.16-31.02-77.24-50.9-85.67-5.95-2.52-11.39-3.38-15.15-3.69v-.08c-.2,0-.44.02-.65.03-.14,0-.29-.02-.42-.03,0,.02,0,.04,0,.05-4.18.23-10.08,1.03-16.47,3.72-19.54,8.23-28.29,27.81-50.9,85.67-6.51,16.66-12.5,32.41-17.99,47.14-15.89,14.9-34.31,34.7-52.03,60.06-20.65,29.55-34.04,57.63-42.81,80.08,5.91-.67,13.62-2.15,22.12-5.53,11.62-4.61,20.01-10.88,25.29-15.55-17.17,24.32-16.53,54.21-.92,71.34,12.45,13.67,30.49,14.89,35.69,15.06-11.77,5.97-23.53,11.94-35.3,17.91l1.14,23.97c9.43,5.8,22.35,12.22,38.5,16.29,36.85,9.27,68.08.62,82.41-4.43,2.43-4.18,5.76-11.1,7.16-20.25,1.67-10.94-.2-19.86-1.62-24.79l5.59-.12c1.86.04,3.73.08,5.59.12-1.43,4.94-3.3,13.85-1.62,24.79,1.4,9.15,4.73,16.07,7.16,20.25,14.33,5.05,45.55,13.71,82.41,4.43,16.16-4.06,29.07-10.49,38.5-16.29l1.14-23.97c-11.77-5.97-23.53-11.94-35.3-17.91,5.2-.17,23.24-1.39,35.69-15.06,15.6-17.13,16.25-47.02-.92-71.34,5.29,4.67,13.68,10.93,25.29,15.55,8.51,3.38,16.21,4.86,22.12,5.53Z"></path>
</svg></svg></g></g></svg>